<svg version="1.0" xmlns="http://www.w3.org/2000/svg"
 width="300.000000pt" height="170.000000pt" viewBox="0 0 300.000000 170.000000"
 preserveAspectRatio="xMidYMid meet">
<g transform="translate(0.000000,170.000000) scale(0.100000,-0.100000)"
fill="#000000" stroke="none">
<path d="M505 1578 c-2 -7 -92 -318 -200 -691 -107 -372 -200 -689 -205 -702
l-10 -25 144 0 143 0 35 133 35 132 220 3 220 2 11 -37 c5 -21 20 -82 32 -135
l22 -98 984 0 984 0 0 410 0 410 -36 0 -37 0 28 -21 27 -22 -6 -371 c-3 -204
-5 -374 -6 -377 0 -11 -210 -10 -210 1 0 6 29 10 73 10 117 0 111 -19 109 352
-1 195 -5 315 -12 322 -7 7 -10 -97 -10 -322 l0 -332 -801 0 c-531 0 -798 -3
-794 -10 3 -5 15 -10 26 -10 10 0 19 -4 19 -9 0 -16 -38 -23 -61 -10 -33 17
-322 233 -335 250 -7 8 -25 65 -41 128 l-29 114 -73 -117 c-40 -64 -77 -116
-82 -116 -5 0 -41 47 -79 105 -38 58 -72 106 -76 106 -4 0 -19 -48 -35 -107
-15 -59 -31 -110 -36 -113 -5 -3 -69 -51 -143 -107 -212 -158 -200 -154 -145
-43 26 52 116 225 200 384 83 160 172 331 198 380 25 50 59 114 76 144 l29 55
-22 45 c-33 65 -116 258 -116 269 0 5 53 8 118 8 64 -1 132 2 150 6 20 5 32 4
32 -3 0 -5 -31 -83 -68 -173 l-68 -162 47 -88 c27 -48 94 -176 150 -284 156
-302 310 -594 326 -620 27 -44 30 -12 5 55 -13 38 -59 185 -101 328 l-77 260
902 3 902 2 0 45 0 45 -916 0 -917 0 -86 303 -86 302 -162 3 c-124 2 -162 0
-166 -10z m359 -229 c19 -63 51 -170 71 -239 39 -134 46 -147 83 -161 13 -5
412 -9 898 -9 481 0 873 -4 870 -9 -3 -4 -395 -8 -871 -8 -822 0 -866 -1 -885
-18 -11 -10 -20 -26 -20 -36 0 -10 18 -82 40 -160 22 -78 40 -146 40 -150 0
-28 -23 6 -85 124 -38 72 -102 195 -143 272 -137 262 -145 281 -134 312 46
123 89 210 98 200 2 -2 19 -55 38 -118z m-289 4 l48 -107 -58 -116 c-32 -63
-105 -205 -163 -315 -58 -110 -115 -218 -126 -240 -29 -59 -33 -20 -5 68 12
40 32 108 44 152 25 88 170 590 179 618 3 9 8 24 11 32 9 31 24 12 70 -92z m4
-843 l22 -40 -49 0 c-27 0 -51 3 -54 6 -5 5 4 51 18 93 6 19 33 -6 63 -59z
m250 33 c19 -68 17 -73 -39 -73 -27 0 -50 4 -50 8 0 15 59 102 69 102 6 0 15
-17 20 -37z m-464 -286 l-16 -55 -59 -4 c-114 -6 -115 0 -10 76 105 75 111 73
85 -17z m688 15 c42 -30 77 -59 77 -63 0 -11 -112 -15 -134 -4 -20 10 -27 27
-40 98 -8 45 -13 47 97 -31z m1082 -81 c2 -5 -184 -9 -415 -9 -237 0 -420 3
-420 8 0 12 828 12 835 1z m335 -1 c0 -4 -72 -7 -160 -6 -88 0 -160 4 -160 8
0 4 72 7 160 6 88 -1 160 -4 160 -8z m200 2 c0 -5 -31 -10 -70 -11 -44 -1 -70
2 -70 8 0 7 28 11 70 11 39 0 70 -4 70 -8z"/>
<path d="M588 1034 c-35 -103 -88 -305 -88 -335 0 -44 17 -4 44 101 14 58 37
148 51 200 31 120 27 137 -7 34z"/>
<path d="M721 1094 c-2 -24 99 -396 110 -408 12 -14 11 51 -1 73 -5 10 -23 70
-39 134 -29 108 -69 225 -70 201z"/>
<path d="M547 659 c14 -14 222 -14 237 1 7 7 -30 10 -119 10 -95 0 -126 -3
-118 -11z"/>
<path d="M1230 620 c0 -29 2 -30 43 -30 l42 0 -4 -81 c-5 -112 7 -204 29 -231
16 -20 28 -23 83 -23 36 0 69 3 72 7 4 4 4 20 0 37 -6 29 -9 31 -44 25 -65
-10 -71 4 -71 177 l0 149 -75 0 -75 0 0 -30z"/>
<path d="M1550 620 c0 -28 2 -30 40 -30 l40 0 1 -122 c0 -189 22 -224 128
-214 29 3 55 7 57 9 2 2 1 18 -2 35 -6 31 -8 32 -45 26 -66 -11 -69 -3 -69
172 l0 154 -75 0 -75 0 0 -30z"/>
<path d="M1951 527 c-46 -23 -66 -63 -66 -132 0 -49 5 -70 21 -92 49 -66 164
-66 204 0 25 40 27 135 4 178 -26 50 -109 74 -163 46z m99 -73 c8 -8 13 -35
13 -59 0 -53 -16 -75 -54 -75 -50 0 -75 65 -47 125 9 19 19 25 43 25 18 0 38
-7 45 -16z"/>
<path d="M2350 520 c-11 -11 -20 -27 -20 -35 0 -8 -4 -15 -10 -15 -5 0 -10 14
-10 30 0 30 -1 30 -55 30 -54 0 -55 -1 -55 -29 0 -25 3 -28 25 -23 l25 4 0
-86 0 -86 -30 0 c-25 0 -30 -4 -30 -25 0 -25 0 -25 95 -25 95 0 95 0 95 25 0
21 -5 25 -30 25 l-30 0 0 65 c0 52 4 69 20 85 11 11 24 20 29 20 23 0 41 -14
41 -31 0 -15 7 -19 35 -19 29 0 35 4 35 20 0 29 -26 76 -45 84 -31 12 -65 6
-85 -14z"/>
<path d="M2550 510 c0 -29 1 -30 48 -30 53 0 95 -18 100 -41 2 -14 -5 -15 -49
-11 -38 4 -61 0 -85 -13 -77 -41 -63 -145 22 -161 45 -8 72 3 95 39 l19 32 0
-32 c0 -39 4 -41 58 -35 36 3 42 7 42 27 0 14 -7 25 -20 28 -18 5 -20 14 -20
81 0 63 -3 79 -22 101 -25 28 -78 44 -145 45 -41 0 -43 -1 -43 -30z m148 -145
c2 -2 -1 -13 -7 -24 -13 -23 -46 -35 -82 -29 -35 4 -33 49 1 59 22 6 79 2 88
-6z"/>
</g>
</svg>