<?xml version="1.0" encoding="UTF-8"?>
<svg width="24pt" height="24pt" version="1.1" viewBox="0 0 24 24" xmlns="http://www.w3.org/2000/svg">
 <path d="m443.96 326.47-122.71-70.844c-1.8594-1.0742-4.1562-1.0742-6.0156 0l-122.71 70.844c-1.8594 1.0742-3.0039 3.0586-3.0039 5.2109v141.69c0 2.1523 1.1445 4.1367 3.0039 5.2109l122.71 70.844c0.93359 0.53516 1.9727 0.80859 3.0039 0.80859 1.0352 0 2.0781-0.26953 3.0039-0.80859l122.71-70.844c1.8594-1.0742 3.0039-3.0586 3.0039-5.2109l0.003907-141.69c0.003906-2.1484-1.1406-4.1328-3.0039-5.2109zm-125.72-58.691 110.68 63.902-110.71 63.918-110.68-63.898zm-116.7 74.352 110.68 63.898v127.77l-110.68-63.891zm122.71 191.67v-127.8l110.68-63.898v127.8zm226.93-189.96-14.355 3.875c-1.4297 0.38672-2.3516 1.3086-2.7305 2.7383l-5.7109 21.453c-0.38281 1.4336-0.042969 2.6914 1.0117 3.7422l10.531 10.496c5.1094 5.0898 5.9844 12.902 2.125 18.996-4.1758 6.6016-8.9727 12.875-14.27 18.645-4.8711 5.3125-12.637 6.5078-18.879 2.918l-12.879-7.4062c-1.2852-0.73828-2.5859-0.73438-3.8711 0.003906l-19.203 11.133c-1.2812 0.74609-1.9336 1.875-1.9297 3.3594l0.023437 14.859c0.003906 3.3242-2.6836 6.0195-6.0078 6.0273h-0.007812c-3.3203 0-6.0117-2.6875-6.0156-6.0078l-0.023437-14.859c-0.007813-5.75 2.9531-10.902 7.9297-13.785l19.203-11.133c4.9727-2.8789 10.918-2.8945 15.898-0.027344l12.879 7.4062c1.3711 0.78906 2.9531 0.54688 4.0195-0.61719 4.8086-5.2422 9.1719-10.941 12.965-16.938 0.84375-1.3398 0.67188-2.9297-0.45312-4.043l-10.531-10.496c-4.0742-4.0586-5.6211-9.8008-4.1406-15.352l5.7109-21.453c1.4805-5.5586 5.6719-9.7656 11.227-11.266l14.355-3.8711c1.5312-0.41016 2.4727-1.6992 2.4062-3.2852-0.30859-7.0898-1.2617-14.203-2.832-21.148-0.34766-1.543-1.5938-2.5352-3.1758-2.5352h-0.003906l-14.859 0.023437h-0.027344c-5.7422 0-10.879-2.9609-13.758-7.9258l-11.133-19.211c-2.8867-4.9727-2.8945-10.918-0.027344-15.902l7.4062-12.883c0.78906-1.3711 0.54688-2.9531-0.625-4.0195-5.2422-4.8086-10.945-9.1719-16.938-12.965-1.3398-0.84375-2.9297-0.67187-4.043 0.45313l-10.496 10.535c-4.0586 4.0742-9.7969 5.6211-15.352 4.1406l-21.453-5.707c-5.5508-1.4805-9.7656-5.6719-11.266-11.227l-3.8711-14.355c-0.41016-1.5312-1.6953-2.4648-3.2852-2.4062-7.0898 0.30859-14.203 1.2656-21.141 2.832-1.543 0.34766-2.543 1.5977-2.5352 3.1797l0.023437 14.859c0.007813 5.75-2.9531 10.902-7.9297 13.785l-19.203 11.133c-4.9727 2.8867-10.918 2.8945-15.902 0.027343l-12.879-7.4062c-2.8789-1.6562-3.8711-5.3359-2.2188-8.2148 1.6562-2.8789 5.3359-3.8711 8.2148-2.2188l12.879 7.4062c1.2852 0.73828 2.5898 0.73438 3.8711-0.003907l19.203-11.133c1.2852-0.74609 1.9336-1.875 1.9297-3.3594l-0.023437-14.859c-0.007813-7.207 4.8906-13.348 11.918-14.938 7.6367-1.7266 15.465-2.7734 23.27-3.1172 7.1875-0.32422 13.551 4.3242 15.43 11.289l3.8711 14.355c0.38672 1.4297 1.3086 2.3477 2.7383 2.7305l21.453 5.707c1.4336 0.38281 2.6914 0.042968 3.7422-1.0117l10.496-10.535c5.0938-5.1094 12.906-5.9844 19-2.125 6.6016 4.1758 12.867 8.9727 18.641 14.266 5.3125 4.8711 6.5078 12.637 2.918 18.887l-7.4219 12.887c-0.73828 1.2852-0.73438 2.5859 0.007813 3.8711l11.133 19.211c0.74609 1.2812 1.8711 1.9297 3.3477 1.9297h0.007812l14.859-0.023438h0.023437c7.1953 0 13.328 4.8945 14.914 11.918 1.7266 7.6367 2.7734 15.465 3.1133 23.27 0.3125 7.1992-4.3281 13.543-11.289 15.422zm-72.945 3.2344c7.0742-26.59-8.8008-53.973-35.387-61.047-11.594-3.0898-23.914-1.8906-34.688 3.3672-2.9805 1.4531-6.5859 0.21875-8.0469-2.7695-1.4531-2.9883-0.21875-6.5859 2.7695-8.0469 13.375-6.5273 28.668-8.0117 43.062-4.1836 32.996 8.7812 52.699 42.773 43.918 75.77-3.4844 13.086-10.941 24.414-21.566 32.758-1.1016 0.86328-2.4102 1.2852-3.7109 1.2852-1.7812 0-3.5469-0.78906-4.7344-2.3008-2.0508-2.6133-1.5938-6.3945 1.0156-8.4453 8.5508-6.7148 14.559-15.844 17.367-26.387z"/>
</svg>
